<?xml version="1.0" encoding="UTF-8" standalone="no"?>
<svg
   xmlns:dc="http://purl.org/dc/elements/1.1/"
   xmlns:cc="http://creativecommons.org/ns#"
   xmlns:rdf="http://www.w3.org/1999/02/22-rdf-syntax-ns#"
   xmlns:svg="http://www.w3.org/2000/svg"
   xmlns="http://www.w3.org/2000/svg"
   xmlns:sodipodi="http://sodipodi.sourceforge.net/DTD/sodipodi-0.dtd"
   xmlns:inkscape="http://www.inkscape.org/namespaces/inkscape"
   width="101.00021mm"
   height="98.708649mm"
   viewBox="0 0 101.00021 98.708649"
   version="1.1"
   id="svg8"
   inkscape:version="1.0.2 (e86c8708, 2021-01-15)"
   sodipodi:docname="icon.svg">
  <defs
     id="defs2">
    <filter
       style="color-interpolation-filters:sRGB"
       inkscape:label="Invert"
       id="filter881">
      <feColorMatrix
         type="hueRotate"
         values="180"
         result="color1"
         id="feColorMatrix877" />
      <feColorMatrix
         values="-1 0 0 0 1 0 -1 0 0 1 0 0 -1 0 1 -0.21 -0.72 -0.07 2 0 "
         result="color2"
         id="feColorMatrix879" />
    </filter>
  </defs>
  <sodipodi:namedview
     id="base"
     pagecolor="#ffffff"
     bordercolor="#666666"
     borderopacity="1.0"
     inkscape:pageopacity="0.0"
     inkscape:pageshadow="2"
     inkscape:zoom="0.41799165"
     inkscape:cx="-406.22811"
     inkscape:cy="674.72852"
     inkscape:document-units="mm"
     inkscape:current-layer="g1024"
     showgrid="false"
     inkscape:window-width="1275"
     inkscape:window-height="944"
     inkscape:window-x="1448"
     inkscape:window-y="163"
     inkscape:window-maximized="0"
     inkscape:document-rotation="0"
     fit-margin-top="0"
     fit-margin-left="0"
     fit-margin-right="0"
     fit-margin-bottom="0" />
  <metadata
     id="metadata5">
    <rdf:RDF>
      <cc:Work
         rdf:about="">
        <dc:format>image/svg+xml</dc:format>
        <dc:type
           rdf:resource="http://purl.org/dc/dcmitype/StillImage" />
        <dc:title></dc:title>
      </cc:Work>
    </rdf:RDF>
  </metadata>
  <g
     inkscape:label="Ebene 1"
     inkscape:groupmode="layer"
     id="layer1"
     transform="translate(-391.59429,-186.79582)">
    <g
       id="g1009"
       style="fill:#008ac9;fill-opacity:1;stroke:none;stroke-width:0;stroke-miterlimit:4;stroke-dasharray:none;stroke-opacity:1"
       transform="matrix(0.11085747,0,0,0.11085747,215.14287,172.61971)">
      <g
         id="g1024"
         transform="matrix(2.5791426,0,0,2.8035341,2806.1764,4244.8206)">
        <path
           style="fill:#008ac9;fill-opacity:1;stroke:none;stroke-width:0;stroke-miterlimit:4;stroke-dasharray:none;stroke-opacity:1"
           d="m -249.08694,-1150.8922 c -29.0978,0.5184 -55.7775,-16.5577 -75.3173,-36.9662 -11.7391,-7.5074 -18.2943,-31.8369 -34.2378,-23.9392 -25.256,8.113 -51.9084,-1.814 -74.6248,-12.8413 -13.2726,-9.4842 -34.1152,-20.4845 -37.6184,-35.4454 13.6882,-11.9433 33.886,-0.2453 49.9675,-7.2042 13.4893,-2.9917 41.0919,-6.9781 25.6119,-25.2049 -16.2301,-31.2842 -20.8185,-71.0663 -2.5263,-102.4867 13.2503,-19.2768 34.6835,-30.0254 51.279,-45.9281 18.0635,-12.7608 38.959,-21.5164 60.8251,-25.0337 8.183,-4.2005 33.5346,-3.4424 29.5555,4.1396 -34.3171,-2.8585 -69.4175,9.4546 -95.5423,31.5819 -11.036,12.247 -27.699,18.4753 -37.4488,32.3173 -10.923,14.0653 -13.9518,32.8144 -15.1278,50.1022 0.5417,22.0566 6.7652,43.9008 18.5438,62.5283 2.4354,19.2277 -22.9363,19.4319 -36.0518,23.782 -13.8555,4.8975 -29.9434,-1.8502 -42.8067,4.0763 7.5111,12.688 22.24,21.3811 35.2842,28.5942 15.6054,8.8929 33.9441,11.9032 51.4047,14.3734 14.6653,0 32.7324,-12.1037 41.0767,6.1661 20.9525,26.1734 49.9151,50.8828 85.2181,51.1205 30.7078,-0.15 61.0063,-12.5362 84.7173,-31.7328 11.5536,-12.9031 24.0146,-26.2079 31.8934,-41.5959 9.6945,-27.2789 17.0015,-58.541 3.7438,-85.9774 -13.3511,-26.3658 -33.0541,-49.2649 -42.7696,-77.4859 -9.0819,-15.6503 -21.9092,-28.734 -31.8503,-43.8426 -3.3558,-10.917 -26.9921,-15.2979 -25.4635,-22.0442 17.909,0.5254 27.3834,17.6233 37.0589,30.2309 11.6746,15.5581 25.0513,30.2332 31.354,49.0827 12.3133,30.6423 39.7499,54.6604 43.9218,88.7111 4.9193,16.268 -4.7854,32.0595 -6.0515,48.1759 -3.2436,20.8968 -19.2686,35.7159 -31.9507,51.3887 -12.9816,15.0046 -31.3902,23.4365 -49.027,31.5228 -13.978,5.097 -28.0007,9.9454 -43.0411,9.8346 z m -6.0135,-13.2013 c -20.4152,-3.5628 -38.4072,-14.4595 -52.8865,-28.9856 -10.5064,-11.3096 -25.6087,-17.4302 -31.5238,-32.618 -9.9129,-10.2047 -25.3692,4.7542 -38.4197,1.1593 -13.9009,0.5659 -29.1096,-2.6555 -41.6341,-9.2582 -16.4047,-1.8547 -24.9182,-23.0841 -1.6626,-19.3061 16.0429,-3.6421 34.1055,-7.6848 45.513,-20.3638 3.1512,-14.474 -14.6764,-26.232 -14.3738,-42.165 -5.5863,-22.9059 -4.6577,-48.4823 6.6694,-69.5423 4.9832,-16.3088 19.336,-25.5469 31.9299,-35.5387 17.1494,-14.8866 38.1481,-25.696 60.2941,-30.8911 17.1242,-2.6381 34.9878,-7.9898 51.7656,-0.6745 26.7987,9.5619 41.4405,35.8119 53.6135,59.7227 13.8235,25.331 29.9103,49.3803 43.5443,74.7984 11.7438,28.2876 15.8575,64.1612 -4.3815,89.7434 -19.8456,25.3868 -44.5106,49.1049 -76.3482,57.9673 -10.2735,4.1028 -21.1846,5.8328 -32.0996,5.9522 z m 9.0544,-5.6414 c 28.3309,-4.665 55.6918,-17.1739 75.1502,-38.726 19.7612,-17.3542 35.2308,-41.9751 32.6117,-69.2702 0.1093,-25.6908 -13.1441,-48.736 -26.4679,-69.7963 -14.1781,-22.5194 -26.1249,-46.3403 -39.9038,-69.0598 -12.7728,-20.6798 -35.7476,-36.8404 -61.0568,-33.0848 -25.2545,2.5253 -50.9386,8.6887 -71.532,24.3154 -16.4767,13.0075 -36.9615,24.4325 -43.0166,46.0855 -11.4424,29.2272 -10.5037,64.3927 6.5497,91.2517 14.0362,17.4164 -10.103,28.0679 -23.6282,33.5164 -7.2764,7.091 -30.6186,2.8544 -30.283,11.3339 19.9613,11.0816 43.9272,15.1485 66.3525,11.6785 12.6696,-7.8496 25.206,-3.1239 30.1602,10.6106 15.5588,15.1145 31.1818,30.9129 49.7487,42.2594 10.6783,6.6258 23.0707,8.8712 35.3153,8.8857 z m -26.5063,-42.3213 c -15.2117,-6.8216 -44.2695,-3.4596 -46.2533,-25.1847 4.1888,-16.7835 10.7141,-34.7744 6.3771,-52.2808 -12.4531,-15.0847 -17.577,-35.2103 -16.3531,-54.7014 0.1539,-23.4301 14.9022,-46.6724 37.5936,-54.132 20.4407,-10.397 44.7013,-10.7369 65.4085,-1.1915 26.3342,14.307 31.75,49.1408 26.1388,76.0927 -3.477,20.4783 -13.8328,41.8643 -34.6813,49.209 -20.5687,6.7787 -13.8908,32.2403 -18.7482,49.0213 -1.0067,8.7751 -11.4676,13.8836 -19.4821,13.1674 z m 6.8635,-6.2016 c 13.5609,-8.4702 6.0155,-28.661 13.7384,-40.9284 -5.0625,-21.3068 25.5221,-16.74 33.6,-32.2631 13.7431,-17.9268 15.3428,-42.2202 14.2908,-64.0298 -2.0313,-19.2073 -13.4243,-40.1239 -34.3363,-42.9747 -24.2551,-7.0282 -51.5314,1.0101 -70.5136,16.9652 -14.8082,15.2619 -15.2119,38.7631 -13.5752,58.7089 1.2153,16.9673 16.4065,29.624 18.2152,44.1742 -4.7117,14.8247 -3.3981,29.1441 -9.282,42.0285 2.6578,16.7164 22.8962,10.6116 34.0678,17.2278 4.4468,1.2556 9.2114,2.2213 13.7949,1.0914 z m -8.4983,-5.8447 c -9.5398,-3.639 -39.6014,-3.8271 -30.0194,-18.3866 12.7682,-4.2512 -6.2016,-14.516 7.1049,-20.9456 -8.8465,-10.0345 2.077,-19.5549 13.8126,-13.8204 13.7841,-1.6675 33.8168,9.5539 23.0597,25.0279 -12.7169,1.6049 6.7506,9.8729 -5.5714,16.4652 -2.3651,0.9225 6.4915,14.1495 -5.3104,12.5841 z m 4.0072,-5.5701 c -10.082,-8.0339 7.49,-12.7242 0.4152,-21.1821 13.558,-10.9239 3.2774,-22.9498 -11.0945,-20.8022 -7.8533,-3.5699 -20.9157,0.7591 -9.3206,9.0406 -2.9967,6.2687 -11.0685,9.2469 -1.9682,15.1449 1.4252,7.5147 -17.7564,10.2129 -2.9616,13.2728 8.5441,0.1477 16.257,6.0725 24.9297,4.526 z m 10.5834,-46.5205 c -15.8313,-14.6641 10.4192,-24.4188 15.3312,-33.6413 -2.0839,-14.7641 -22.6108,-15.8658 -34.5775,-17.5344 -17.6941,-2.2068 -14.4386,16.012 -6.9713,25.0699 6.9985,18.1261 -12.0078,22.3706 -19.0751,6.6571 -8.8576,-13.0152 -13.2898,-29.1765 -13.7556,-44.7961 -0.047,-21.069 12.6578,-41.7032 32.8332,-48.8742 17.6083,-8.2268 40.6271,-10.0838 57.4732,0.9145 20.8963,15.5791 22.612,45.6688 17.2832,69.1201 -2.8318,18.7406 -17.1942,33.7918 -35.2975,38.7334 -3.9769,2.3919 -8.4211,4.8141 -13.2438,4.351 z m 6.8245,-6.4032 c 17.5174,-6.2023 35.6977,-18.3649 36.9579,-38.7626 3.3755,-21.1958 3.8995,-48.3057 -14.6893,-62.862 -16.5404,-10.9096 -38.9931,-6.5643 -56.2824,0.5274 -21.1844,9.2034 -30.113,34.3324 -25.0829,55.9022 1.3109,12.2939 10.4824,36.7893 20.515,35.2987 -1.1084,-14.3585 -15.3747,-41.5606 11.1162,-40.6789 14.5605,2.3568 40.4376,4.4346 41.1656,23.166 2.4681,15.2855 -30.4903,16.1475 -16.2831,28.5171 z m -24.7954,1.8446 c -12.9851,-8.1915 2.2361,-27.5164 -10.172,-36.5892 1.5496,-16.8511 13.4418,3.8495 13.5267,1.6833 10.5939,-16.0098 15.9962,2.5155 10.872,12.7953 -1.7189,6.5767 -4.0225,25.6221 -14.2267,22.1106 z m 4.8572,-6.0331 c 0.2866,-8.5601 10.5646,-25.9028 3.61,-28.6803 -6.3491,4.1814 -14.2744,30.8988 -3.61,28.6803 z m -8.4058,-28.6632 c -2.1815,-7.9495 -3.4722,2.7279 0,0 z m 21.5648,11.167 c -5.8058,-14.9571 23.8125,-8.7043 6.5875,0.086 -2.1532,0.6336 -4.4357,0.3755 -6.5875,-0.086 z"
           id="path983"
           inkscape:connector-curvature="0" />
      </g>
    </g>
  </g>
</svg>
